<svg width="139" height="139" viewBox="0 0 139 139" fill="none" xmlns="http://www.w3.org/2000/svg">
<circle cx="69.5" cy="69.5" r="69.5" fill="white"/>
<path d="M29.7221 50.2269C29.7221 51.2839 30.5731 52.1407 31.6228 52.1407H36.4589C40.5419 52.1407 42.2261 50.0544 42.2261 47.1031C42.2261 44.3044 40.5419 42.2181 36.4589 42.2181H31.6228C30.5731 42.2181 29.7221 43.0749 29.7221 44.1319V50.2269ZM29.7221 83.2173C29.7221 85.475 26.5194 85.8709 25.977 83.6803L22.6844 70.3822C22.6469 70.2308 22.6279 70.0753 22.6279 69.9193V38.2801C22.6279 37.2231 23.4789 36.3662 24.5287 36.3662H37.5817C44.2165 36.3662 48.4526 41.2003 48.4526 47.3066C48.4526 53.4638 44.2165 57.8908 37.5817 57.8908H31.6228C30.5731 57.8908 29.7221 58.7477 29.7221 59.8047V83.2173Z" fill="#F277AD"/>
<path d="M64.3558 60.6386C64.3744 59.6369 62.9058 58.7504 61.9387 58.986C61.4262 59.1109 60.826 59.2345 60.1197 59.3665C56.343 60.0789 55.1181 61.1475 55.1181 63.2847C55.1181 65.1675 56.2409 66.0834 58.3334 66.0834C61.7529 66.0834 64.3048 63.59 64.3558 60.6386ZM71.0416 68.2404C71.0416 69.2974 70.1906 70.1542 69.1409 70.1542H65.4006C65.0813 70.1542 64.8087 69.9963 64.7309 69.6844C64.5718 69.0463 63.6869 68.6779 63.1476 69.0495C61.569 70.1371 59.4183 70.8158 56.8534 70.8158C51.1372 70.8158 48.4833 68.017 48.4833 63.9462C48.4833 56.7204 53.3318 55.9063 60.0177 54.9903C63.3351 54.5324 64.2537 53.8709 64.2537 52.1407C64.2537 50.5124 62.6205 49.5456 60.0177 49.5456C57.8006 49.5456 56.5519 50.3455 55.9253 51.6611C55.5146 52.5232 54.768 53.2602 53.8184 53.2602H51.2387C50.1742 53.2602 49.2939 52.3729 49.4852 51.3185C50.234 47.1908 53.3094 44.457 60.3239 44.457C68.2856 44.457 71.0416 48.019 71.0416 54.3288V68.2404Z" fill="#F277AD"/>
<path d="M88.2068 60.1807V55.5812C88.2068 54.5242 89.0578 53.6673 90.1076 53.6673H92.4815C93.5312 53.6673 94.3823 54.5242 94.3823 55.5812V60.7913C94.3823 66.0834 91.32 70.8158 84.2259 70.8158C76.8766 70.8158 73.9675 66.1343 73.9675 60.7404V40.2646C73.9675 39.2076 74.8185 38.3508 75.8683 38.3508H78.5994C79.6492 38.3508 80.5002 39.2076 80.5002 40.2646V43.2047C80.5002 44.2617 81.3512 45.1185 82.401 45.1185H92.4815C93.5312 45.1185 94.3823 45.9754 94.3823 47.0324V47.8861C94.3823 48.9431 93.5312 49.8 92.4815 49.8H82.401C81.3512 49.8 80.5002 50.6569 80.5002 51.7139V60.0789C80.5002 63.2338 81.623 65.0657 84.328 65.0657C86.9819 65.0657 88.2068 63.2847 88.2068 60.1807Z" fill="#F277AD"/>
<path d="M41.617 85.374C41.617 86.6952 42.6808 87.7663 43.993 87.7663H48.3682C52.4599 87.7663 54.1477 85.651 54.1477 82.6587C54.1477 79.8211 52.4599 77.7058 48.3682 77.7058H43.993C42.6808 77.7058 41.617 78.7769 41.617 80.0981V85.374ZM41.617 103.638C41.617 104.959 40.5533 106.03 39.241 106.03H36.8838C35.5715 106.03 34.5078 104.959 34.5078 103.638V74.165C34.5078 72.8438 35.5715 71.7727 36.8838 71.7727H49.4934C56.1423 71.7727 60.3874 76.674 60.3874 82.865C60.3874 89.1077 56.1423 93.5962 49.4934 93.5962H43.993C42.6808 93.5962 41.617 94.6673 41.617 95.9886V103.638Z" fill="#F99035"/>
<path d="M69.9544 82.0617C69.3934 83.332 70.5371 84.5535 71.9178 84.5535H77.1995C78.5371 84.5535 79.6759 83.4022 79.1808 82.1511C78.3357 80.0156 76.4496 78.9815 74.4756 78.9815C72.5269 78.9815 70.8254 80.0894 69.9544 82.0617ZM86.4111 86.3905C86.5073 87.7082 85.4311 88.784 84.1188 88.784H71.6641C70.3016 88.784 69.1701 89.9626 69.6188 91.258C70.4428 93.6368 72.2852 95.0783 74.7825 95.0783C76.1916 95.0783 77.4906 94.6121 78.3476 93.7962C79.1312 93.0502 80.0346 92.2407 81.113 92.2407H82.9542C84.5425 92.2407 85.6886 93.8019 84.8662 95.1701C82.8408 98.5398 79.3517 100.392 75.0894 100.392C66.7015 100.392 62.5076 95.749 62.5076 86.5656C62.5076 78.7235 66.9572 73.6675 74.6802 73.6675C81.7644 73.6675 85.7931 77.9217 86.4111 86.3905Z" fill="#F99035"/>
<path d="M101.974 95.9179V91.7064C101.974 90.3852 103.038 89.3141 104.35 89.3141H105.787C107.099 89.3141 108.163 90.3852 108.163 91.7064V96.537C108.163 101.903 105.094 106.701 97.9849 106.701C90.62 106.701 87.7047 101.954 87.7047 96.4854V76.1771C87.7047 74.8559 88.7685 73.7848 90.0807 73.7848H91.8754C93.1876 73.7848 94.2513 74.8559 94.2513 76.1771V78.2542C94.2513 79.5755 95.3151 80.6466 96.6273 80.6466H105.806C107.108 80.6466 108.163 81.7091 108.163 83.0198C108.163 84.3305 107.108 85.3931 105.806 85.3931H96.6273C95.3151 85.3931 94.2513 86.4641 94.2513 87.7854V95.8147C94.2513 99.0134 95.3765 100.871 98.0872 100.871C100.747 100.871 101.974 99.065 101.974 95.9179Z" fill="#F99035"/>
<path d="M114.556 46.352L113.935 46.8566C113.935 46.8566 112.72 47.8434 111.434 49.0827C110.792 49.7024 110.129 50.3844 109.582 51.0532C109.036 51.7218 108.595 52.3546 108.419 53.013C107.819 55.2703 109.158 57.606 111.4 58.2108C113.642 58.8157 115.961 57.4671 116.562 55.2099C116.737 54.5514 116.669 53.7812 116.528 52.9271C116.387 52.073 116.154 51.1491 115.905 50.2888C115.407 48.5683 114.843 47.1015 114.843 47.1015L114.556 46.352ZM114.028 48.3344C114.209 48.8274 114.433 49.3894 114.788 50.617C115.029 51.4493 115.253 52.338 115.382 53.1193C115.511 53.9007 115.524 54.5896 115.439 54.907C115.214 55.7555 114.662 56.4231 113.956 56.8113C114.127 56.5831 114.258 56.3191 114.336 56.026C114.661 54.8046 113.272 51.1779 113.272 51.1779C113.272 51.1779 110.268 53.6193 109.943 54.8408C109.865 55.1347 109.848 55.4303 109.883 55.7147C109.463 55.0228 109.316 54.1655 109.542 53.3159C109.626 52.9986 109.982 52.4091 110.482 51.7973C110.981 51.1857 111.616 50.5286 112.238 49.9291C113.156 49.045 113.627 48.6704 114.028 48.3344ZM101.662 46.9337L101.266 47.6289C101.266 47.6289 100.485 48.9915 99.7313 50.6147C99.3542 51.4262 98.9821 52.3046 98.7125 53.1269C98.4431 53.9492 98.2596 54.6985 98.3325 55.3761C98.5823 57.6994 100.668 59.3907 102.975 59.1392C105.283 58.8876 106.963 56.7852 106.713 54.4621C106.64 53.7843 106.299 53.0939 105.861 52.3488C105.423 51.6038 104.872 50.8258 104.331 50.1144C103.249 48.6914 102.2 47.5282 102.2 47.5282L101.662 46.9337ZM125.371 53.3303L124.611 53.5746C124.611 53.5746 123.124 54.0534 121.481 54.7411C120.659 55.085 119.796 55.4814 119.046 55.9061C118.297 56.3309 117.661 56.7576 117.261 57.3078C115.891 59.194 116.3 61.86 118.173 63.2395C120.047 64.619 122.695 64.205 124.065 62.3186C124.465 61.7685 124.676 61.0267 124.851 60.1789C125.026 59.3311 125.14 58.3831 125.216 57.4903C125.369 55.7049 125.369 54.1319 125.369 54.1319L125.371 53.3303ZM124.169 54.9863C124.161 55.5115 124.167 56.1166 124.058 57.3909C123.984 58.2548 123.873 59.1652 123.713 59.9407C123.553 60.7162 123.318 61.3624 123.126 61.6277C122.611 62.3364 121.857 62.7578 121.06 62.8633C121.301 62.7127 121.518 62.5148 121.695 62.2705C122.437 61.2497 122.442 57.3627 122.442 57.3627C122.442 57.3627 118.765 58.5462 118.024 59.5669C117.846 59.8116 117.724 60.08 117.655 60.3569C117.513 59.5598 117.683 58.7077 118.198 57.9983C118.391 57.7332 118.931 57.3146 119.616 56.926C120.302 56.5373 121.131 56.1548 121.926 55.822C123.1 55.3307 123.675 55.1531 124.169 54.9863ZM101.883 48.9758C102.228 49.3698 102.637 49.811 103.409 50.8261C103.932 51.5147 104.46 52.2635 104.861 52.9452C105.262 53.6268 105.521 54.2611 105.557 54.5877C105.65 55.461 105.375 56.2846 104.857 56.9033C104.934 56.6287 104.961 56.3352 104.929 56.0341C104.794 54.7769 102.197 51.9007 102.197 51.9007C102.197 51.9007 100.272 55.2699 100.407 56.5271C100.44 56.8281 100.529 57.1088 100.663 57.3603C100.025 56.8679 99.5808 56.1232 99.487 55.25C99.4518 54.9233 99.5694 54.2455 99.8159 53.4933C100.062 52.7411 100.421 51.8974 100.786 51.112C101.323 49.9545 101.629 49.4355 101.883 48.9758ZM110.983 59.3643C108.36 58.6568 105.761 59.8011 104.663 61.9819C103.15 62.1306 101.743 62.473 100.645 63.1196C99.4603 63.8169 98.5757 64.8197 98.2429 66.0703C97.7463 67.9364 98.5758 69.8923 100.151 71.5111C101.725 73.1299 104.073 74.4737 106.845 75.2216C109.617 75.9695 112.306 75.9852 114.465 75.373C116.624 74.7609 118.305 73.4806 118.801 71.6169C119.137 70.3549 118.863 69.0286 118.172 67.8178C117.53 66.6936 116.463 65.6793 115.201 64.7848C115.309 62.3512 113.59 60.0679 110.983 59.3643ZM110.682 60.4944C112.91 61.0955 114.291 63.0524 114.073 64.9703L114.032 65.3259L114.329 65.5249C115.61 66.382 116.587 67.3896 117.164 68.4C117.741 69.4104 117.922 70.4 117.679 71.3143C117.439 72.2172 116.796 72.9802 115.828 73.5488C116.169 73.148 116.417 72.6928 116.551 72.1881C116.958 70.6611 115.694 67.7627 112.458 65.9147C112.494 65.8226 112.525 65.7277 112.551 65.6302C112.962 64.0835 111.97 62.4717 110.334 62.0304C108.699 61.5891 107.039 62.4854 106.627 64.0321C106.602 64.1254 106.583 64.2188 106.568 64.3122C102.831 64.2714 100.311 66.177 99.9065 67.6976C99.7737 68.1965 99.7618 68.7096 99.8566 69.2232C99.3036 68.2479 99.1268 67.2699 99.3653 66.3736C99.606 65.4692 100.244 64.7112 101.231 64.1299C102.219 63.5485 103.547 63.1666 105.06 63.0594L105.414 63.034L105.554 62.7027C106.31 60.9072 108.442 59.8902 110.682 60.4944Z" fill="#F99035"/>
<path d="M29.7221 50.2269C29.7221 51.2839 30.5731 52.1407 31.6228 52.1407H36.4589C40.5419 52.1407 42.2261 50.0544 42.2261 47.1031C42.2261 44.3044 40.5419 42.2181 36.4589 42.2181H31.6228C30.5731 42.2181 29.7221 43.0749 29.7221 44.1319V50.2269ZM29.7221 83.2173C29.7221 85.475 26.5194 85.8709 25.977 83.6803L22.6844 70.3822C22.6469 70.2308 22.6279 70.0753 22.6279 69.9193V38.2801C22.6279 37.2231 23.4789 36.3662 24.5287 36.3662H37.5817C44.2165 36.3662 48.4526 41.2003 48.4526 47.3066C48.4526 53.4638 44.2165 57.8908 37.5817 57.8908H31.6228C30.5731 57.8908 29.7221 58.7477 29.7221 59.8047V83.2173Z" stroke="black"/>
<path d="M64.3558 60.6386C64.3744 59.6369 62.9058 58.7504 61.9387 58.986C61.4262 59.1109 60.826 59.2345 60.1197 59.3665C56.343 60.0789 55.1181 61.1475 55.1181 63.2847C55.1181 65.1675 56.2409 66.0834 58.3334 66.0834C61.7529 66.0834 64.3048 63.59 64.3558 60.6386ZM71.0416 68.2404C71.0416 69.2974 70.1906 70.1542 69.1409 70.1542H65.4006C65.0813 70.1542 64.8087 69.9963 64.7309 69.6844C64.5718 69.0463 63.6869 68.6779 63.1476 69.0495C61.569 70.1371 59.4183 70.8158 56.8534 70.8158C51.1372 70.8158 48.4833 68.017 48.4833 63.9462C48.4833 56.7204 53.3318 55.9063 60.0177 54.9903C63.3351 54.5324 64.2537 53.8709 64.2537 52.1407C64.2537 50.5124 62.6205 49.5456 60.0177 49.5456C57.8006 49.5456 56.5519 50.3455 55.9253 51.6611C55.5146 52.5232 54.768 53.2602 53.8184 53.2602H51.2387C50.1742 53.2602 49.2939 52.3729 49.4852 51.3185C50.234 47.1908 53.3094 44.457 60.3239 44.457C68.2856 44.457 71.0416 48.019 71.0416 54.3288V68.2404Z" stroke="black"/>
<path d="M88.2068 60.1807V55.5812C88.2068 54.5242 89.0578 53.6673 90.1076 53.6673H92.4815C93.5312 53.6673 94.3823 54.5242 94.3823 55.5812V60.7913C94.3823 66.0834 91.32 70.8158 84.2259 70.8158C76.8766 70.8158 73.9675 66.1343 73.9675 60.7404V40.2646C73.9675 39.2076 74.8185 38.3508 75.8683 38.3508H78.5994C79.6492 38.3508 80.5002 39.2076 80.5002 40.2646V43.2047C80.5002 44.2617 81.3512 45.1185 82.401 45.1185H92.4815C93.5312 45.1185 94.3823 45.9754 94.3823 47.0324V47.8861C94.3823 48.9431 93.5312 49.8 92.4815 49.8H82.401C81.3512 49.8 80.5002 50.6569 80.5002 51.7139V60.0789C80.5002 63.2338 81.623 65.0657 84.328 65.0657C86.9819 65.0657 88.2068 63.2847 88.2068 60.1807Z" stroke="black"/>
<path d="M41.617 85.374C41.617 86.6952 42.6808 87.7663 43.993 87.7663H48.3682C52.4599 87.7663 54.1477 85.651 54.1477 82.6587C54.1477 79.8211 52.4599 77.7058 48.3682 77.7058H43.993C42.6808 77.7058 41.617 78.7769 41.617 80.0981V85.374ZM41.617 103.638C41.617 104.959 40.5533 106.03 39.241 106.03H36.8838C35.5715 106.03 34.5078 104.959 34.5078 103.638V74.165C34.5078 72.8438 35.5715 71.7727 36.8838 71.7727H49.4934C56.1423 71.7727 60.3874 76.674 60.3874 82.865C60.3874 89.1077 56.1423 93.5962 49.4934 93.5962H43.993C42.6808 93.5962 41.617 94.6673 41.617 95.9886V103.638Z" stroke="black"/>
<path d="M69.9544 82.0617C69.3934 83.332 70.5371 84.5535 71.9178 84.5535H77.1995C78.5371 84.5535 79.6759 83.4022 79.1808 82.1511C78.3357 80.0156 76.4496 78.9815 74.4756 78.9815C72.5269 78.9815 70.8254 80.0894 69.9544 82.0617ZM86.4111 86.3905C86.5073 87.7082 85.4311 88.784 84.1188 88.784H71.6641C70.3016 88.784 69.1701 89.9626 69.6188 91.258C70.4428 93.6368 72.2852 95.0783 74.7825 95.0783C76.1916 95.0783 77.4906 94.6121 78.3476 93.7962C79.1312 93.0502 80.0346 92.2407 81.113 92.2407H82.9542C84.5425 92.2407 85.6886 93.8019 84.8662 95.1701C82.8408 98.5398 79.3517 100.392 75.0894 100.392C66.7015 100.392 62.5076 95.749 62.5076 86.5656C62.5076 78.7235 66.9572 73.6675 74.6802 73.6675C81.7644 73.6675 85.7931 77.9217 86.4111 86.3905Z" stroke="black"/>
<path d="M101.974 95.9179V91.7064C101.974 90.3852 103.038 89.3141 104.35 89.3141H105.787C107.099 89.3141 108.163 90.3852 108.163 91.7064V96.537C108.163 101.903 105.094 106.701 97.9849 106.701C90.62 106.701 87.7047 101.954 87.7047 96.4854V76.1771C87.7047 74.8559 88.7685 73.7848 90.0807 73.7848H91.8754C93.1876 73.7848 94.2513 74.8559 94.2513 76.1771V78.2542C94.2513 79.5755 95.3151 80.6466 96.6273 80.6466H105.806C107.108 80.6466 108.163 81.7091 108.163 83.0198C108.163 84.3305 107.108 85.3931 105.806 85.3931H96.6273C95.3151 85.3931 94.2513 86.4641 94.2513 87.7854V95.8147C94.2513 99.0134 95.3765 100.871 98.0872 100.871C100.747 100.871 101.974 99.065 101.974 95.9179Z" stroke="black"/>
<path d="M114.556 46.352L113.935 46.8566C113.935 46.8566 112.72 47.8434 111.434 49.0827C110.792 49.7024 110.129 50.3844 109.582 51.0532C109.036 51.7218 108.595 52.3546 108.419 53.013C107.819 55.2703 109.158 57.606 111.4 58.2108C113.642 58.8157 115.961 57.4671 116.562 55.2099C116.737 54.5514 116.669 53.7812 116.528 52.9271C116.387 52.073 116.154 51.1491 115.905 50.2888C115.407 48.5683 114.843 47.1015 114.843 47.1015L114.556 46.352ZM114.028 48.3344C114.209 48.8274 114.433 49.3894 114.788 50.617C115.029 51.4493 115.253 52.338 115.382 53.1193C115.511 53.9007 115.524 54.5896 115.439 54.907C115.214 55.7555 114.662 56.4231 113.956 56.8113C114.127 56.5831 114.258 56.3191 114.336 56.026C114.661 54.8046 113.272 51.1779 113.272 51.1779C113.272 51.1779 110.268 53.6193 109.943 54.8408C109.865 55.1347 109.848 55.4303 109.883 55.7147C109.463 55.0228 109.316 54.1655 109.542 53.3159C109.626 52.9986 109.982 52.4091 110.482 51.7973C110.981 51.1857 111.616 50.5286 112.238 49.9291C113.156 49.045 113.627 48.6704 114.028 48.3344ZM101.662 46.9337L101.266 47.6289C101.266 47.6289 100.485 48.9915 99.7313 50.6147C99.3542 51.4262 98.9821 52.3046 98.7125 53.1269C98.4431 53.9492 98.2596 54.6985 98.3325 55.3761C98.5823 57.6994 100.668 59.3907 102.975 59.1392C105.283 58.8876 106.963 56.7852 106.713 54.4621C106.64 53.7843 106.299 53.0939 105.861 52.3488C105.423 51.6038 104.872 50.8258 104.331 50.1144C103.249 48.6914 102.2 47.5282 102.2 47.5282L101.662 46.9337ZM125.371 53.3303L124.611 53.5746C124.611 53.5746 123.124 54.0534 121.481 54.7411C120.659 55.085 119.796 55.4814 119.046 55.9061C118.297 56.3309 117.661 56.7576 117.261 57.3078C115.891 59.194 116.3 61.86 118.173 63.2395C120.047 64.619 122.695 64.205 124.065 62.3186C124.465 61.7685 124.676 61.0267 124.851 60.1789C125.026 59.3311 125.14 58.3831 125.216 57.4903C125.369 55.7049 125.369 54.1319 125.369 54.1319L125.371 53.3303ZM124.169 54.9863C124.161 55.5115 124.167 56.1166 124.058 57.3909C123.984 58.2548 123.873 59.1652 123.713 59.9407C123.553 60.7162 123.318 61.3624 123.126 61.6277C122.611 62.3364 121.857 62.7578 121.06 62.8633C121.301 62.7127 121.518 62.5148 121.695 62.2705C122.437 61.2497 122.442 57.3627 122.442 57.3627C122.442 57.3627 118.765 58.5462 118.024 59.5669C117.846 59.8116 117.724 60.08 117.655 60.3569C117.513 59.5598 117.683 58.7077 118.198 57.9983C118.391 57.7332 118.931 57.3146 119.616 56.926C120.302 56.5373 121.131 56.1548 121.926 55.822C123.1 55.3307 123.675 55.1531 124.169 54.9863ZM101.883 48.9758C102.228 49.3698 102.637 49.811 103.409 50.8261C103.932 51.5147 104.46 52.2635 104.861 52.9452C105.262 53.6268 105.521 54.2611 105.557 54.5877C105.65 55.461 105.375 56.2846 104.857 56.9033C104.934 56.6287 104.961 56.3352 104.929 56.0341C104.794 54.7769 102.197 51.9007 102.197 51.9007C102.197 51.9007 100.272 55.2699 100.407 56.5271C100.44 56.8281 100.529 57.1088 100.663 57.3603C100.025 56.8679 99.5808 56.1232 99.487 55.25C99.4518 54.9233 99.5694 54.2455 99.8159 53.4933C100.062 52.7411 100.421 51.8974 100.786 51.112C101.323 49.9545 101.629 49.4355 101.883 48.9758ZM110.983 59.3643C108.36 58.6568 105.761 59.8011 104.663 61.9819C103.15 62.1306 101.743 62.473 100.645 63.1196C99.4603 63.8169 98.5757 64.8197 98.2429 66.0703C97.7463 67.9364 98.5758 69.8923 100.151 71.5111C101.725 73.1299 104.073 74.4737 106.845 75.2216C109.617 75.9695 112.306 75.9852 114.465 75.373C116.624 74.7609 118.305 73.4806 118.801 71.6169C119.137 70.3549 118.863 69.0286 118.172 67.8178C117.53 66.6936 116.463 65.6793 115.201 64.7848C115.309 62.3512 113.59 60.0679 110.983 59.3643ZM110.682 60.4944C112.91 61.0955 114.291 63.0524 114.073 64.9703L114.032 65.3259L114.329 65.5249C115.61 66.382 116.587 67.3896 117.164 68.4C117.741 69.4104 117.922 70.4 117.679 71.3143C117.439 72.2172 116.796 72.9802 115.828 73.5488C116.169 73.148 116.417 72.6928 116.551 72.1881C116.958 70.6611 115.694 67.7627 112.458 65.9147C112.494 65.8226 112.525 65.7277 112.551 65.6302C112.962 64.0835 111.97 62.4717 110.334 62.0304C108.699 61.5891 107.039 62.4854 106.627 64.0321C106.602 64.1254 106.583 64.2188 106.568 64.3122C102.831 64.2714 100.311 66.177 99.9065 67.6976C99.7737 68.1965 99.7618 68.7096 99.8566 69.2232C99.3036 68.2479 99.1268 67.2699 99.3653 66.3736C99.606 65.4692 100.244 64.7112 101.231 64.1299C102.219 63.5485 103.547 63.1666 105.06 63.0594L105.414 63.034L105.554 62.7027C106.31 60.9072 108.442 59.8902 110.682 60.4944Z" stroke="black"/>
</svg>
