<svg width="139" height="139" viewBox="0 0 139 139" fill="none" xmlns="http://www.w3.org/2000/svg">
<circle cx="69.5" cy="69.5" r="69.5" fill="white"/>
<path d="M29.7221 50.2269C29.7221 51.2839 30.5731 52.1408 31.6228 52.1408H36.4589C40.5419 52.1408 42.2261 50.0545 42.2261 47.1031C42.2261 44.3044 40.5419 42.2181 36.4589 42.2181H31.6228C30.5731 42.2181 29.7221 43.075 29.7221 44.132V50.2269ZM29.7221 83.2174C29.7221 85.4751 26.5194 85.871 25.977 83.6804L22.6844 70.3823C22.6469 70.2309 22.6279 70.0754 22.6279 69.9193V38.2801C22.6279 37.2231 23.4789 36.3663 24.5287 36.3663H37.5817C44.2165 36.3663 48.4526 41.2004 48.4526 47.3067C48.4526 53.4638 44.2165 57.8909 37.5817 57.8909H31.6228C30.5731 57.8909 29.7221 58.7477 29.7221 59.8047V83.2174Z" fill="#F277AD"/>
<path d="M64.3558 60.6387C64.3744 59.637 62.9058 58.7505 61.9387 58.9861C61.4262 59.111 60.826 59.2345 60.1197 59.3666C56.343 60.079 55.1181 61.1476 55.1181 63.2847C55.1181 65.1675 56.2409 66.0835 58.3334 66.0835C61.7529 66.0835 64.3048 63.5901 64.3558 60.6387ZM71.0416 68.2404C71.0416 69.2974 70.1906 70.1543 69.1409 70.1543H65.4006C65.0813 70.1543 64.8087 69.9964 64.7309 69.6845C64.5718 69.0464 63.6869 68.678 63.1476 69.0495C61.569 70.1372 59.4183 70.8158 56.8534 70.8158C51.1372 70.8158 48.4833 68.0171 48.4833 63.9463C48.4833 56.7205 53.3318 55.9063 60.0177 54.9904C63.3351 54.5324 64.2537 53.8709 64.2537 52.1408C64.2537 50.5125 62.6205 49.5456 60.0177 49.5456C57.8006 49.5456 56.5519 50.3456 55.9253 51.6612C55.5146 52.5232 54.768 53.2603 53.8184 53.2603H51.2387C50.1742 53.2603 49.2939 52.373 49.4852 51.3186C50.234 47.1908 53.3094 44.4571 60.3239 44.4571C68.2856 44.4571 71.0416 48.0191 71.0416 54.3289V68.2404Z" fill="#F277AD"/>
<path d="M88.2068 60.1807V55.5812C88.2068 54.5242 89.0578 53.6674 90.1076 53.6674H92.4815C93.5312 53.6674 94.3823 54.5242 94.3823 55.5812V60.7914C94.3823 66.0835 91.32 70.8158 84.2259 70.8158C76.8766 70.8158 73.9675 66.1343 73.9675 60.7405V40.2647C73.9675 39.2077 74.8185 38.3508 75.8683 38.3508H78.5994C79.6492 38.3508 80.5002 39.2077 80.5002 40.2647V43.2047C80.5002 44.2617 81.3512 45.1186 82.401 45.1186H92.4815C93.5312 45.1186 94.3823 45.9755 94.3823 47.0325V47.8862C94.3823 48.9432 93.5312 49.8001 92.4815 49.8001H82.401C81.3512 49.8001 80.5002 50.6569 80.5002 51.7139V60.079C80.5002 63.2339 81.623 65.0657 84.328 65.0657C86.9819 65.0657 88.2068 63.2848 88.2068 60.1807Z" fill="#F277AD"/>
<path d="M41.617 85.3741C41.617 86.6953 42.6808 87.7664 43.993 87.7664H48.3682C52.4599 87.7664 54.1477 85.6511 54.1477 82.6587C54.1477 79.8212 52.4599 77.7059 48.3682 77.7059H43.993C42.6808 77.7059 41.617 78.777 41.617 80.0982V85.3741ZM41.617 103.638C41.617 104.959 40.5533 106.03 39.241 106.03H36.8838C35.5715 106.03 34.5078 104.959 34.5078 103.638V74.1651C34.5078 72.8438 35.5715 71.7727 36.8838 71.7727H49.4934C56.1423 71.7727 60.3874 76.674 60.3874 82.8651C60.3874 89.1078 56.1423 93.5963 49.4934 93.5963H43.993C42.6808 93.5963 41.617 94.6674 41.617 95.9886V103.638Z" fill="#F99035"/>
<path d="M69.9544 82.0617C69.3934 83.332 70.5371 84.5535 71.9178 84.5535H77.1995C78.5371 84.5535 79.6759 83.4023 79.1808 82.1511C78.3357 80.0157 76.4496 78.9815 74.4756 78.9815C72.5269 78.9815 70.8254 80.0895 69.9544 82.0617ZM86.4111 86.3905C86.5073 87.7082 85.4311 88.7841 84.1188 88.7841H71.6641C70.3016 88.7841 69.1701 89.9627 69.6188 91.2581C70.4428 93.6369 72.2852 95.0784 74.7825 95.0784C76.1916 95.0784 77.4906 94.6122 78.3476 93.7963C79.1312 93.0503 80.0346 92.2408 81.113 92.2408H82.9542C84.5425 92.2408 85.6886 93.8019 84.8662 95.1702C82.8408 98.5399 79.3517 100.392 75.0894 100.392C66.7015 100.392 62.5076 95.7491 62.5076 86.5656C62.5076 78.7236 66.9572 73.6675 74.6802 73.6675C81.7644 73.6675 85.7931 77.9218 86.4111 86.3905Z" fill="#F99035"/>
<path d="M101.974 95.918V91.7065C101.974 90.3852 103.038 89.3141 104.35 89.3141H105.787C107.099 89.3141 108.163 90.3852 108.163 91.7065V96.5371C108.163 101.903 105.094 106.701 97.9849 106.701C90.62 106.701 87.7047 101.954 87.7047 96.4855V76.1772C87.7047 74.8559 88.7685 73.7849 90.0807 73.7849H91.8753C93.1876 73.7849 94.2513 74.8559 94.2513 76.1772V78.2543C94.2513 79.5756 95.3151 80.6466 96.6273 80.6466H105.806C107.108 80.6466 108.163 81.7092 108.163 83.0199C108.163 84.3306 107.108 85.3931 105.806 85.3931H96.6273C95.3151 85.3931 94.2513 86.4642 94.2513 87.7855V95.8148C94.2513 99.0135 95.3765 100.871 98.0872 100.871C100.747 100.871 101.974 99.0651 101.974 95.918Z" fill="#F99035"/>
<path d="M114.556 46.3521L113.935 46.8566C113.935 46.8566 112.72 47.8435 111.434 49.0827C110.792 49.7024 110.129 50.3845 109.582 51.0533C109.036 51.7218 108.595 52.3546 108.419 53.0131C107.819 55.2703 109.158 57.6061 111.4 58.2109C113.642 58.8158 115.961 57.4672 116.562 55.21C116.737 54.5515 116.669 53.7812 116.528 52.9272C116.387 52.073 116.154 51.1492 115.905 50.2889C115.407 48.5683 114.843 47.1016 114.843 47.1016L114.556 46.3521ZM114.028 48.3344C114.209 48.8274 114.433 49.3895 114.788 50.617C115.029 51.4494 115.253 52.338 115.382 53.1193C115.511 53.9008 115.524 54.5897 115.439 54.9071C115.214 55.7556 114.662 56.4232 113.956 56.8114C114.127 56.5832 114.258 56.3191 114.336 56.0261C114.661 54.8046 113.272 51.178 113.272 51.178C113.272 51.178 110.268 53.6193 109.943 54.8408C109.865 55.1348 109.848 55.4304 109.883 55.7148C109.463 55.0229 109.316 54.1656 109.542 53.316C109.626 52.9986 109.982 52.4091 110.482 51.7974C110.981 51.1857 111.616 50.5287 112.238 49.9292C113.156 49.0451 113.627 48.6705 114.028 48.3344ZM101.662 46.9338L101.266 47.6289C101.266 47.6289 100.485 48.9916 99.7313 50.6147C99.3542 51.4263 98.9821 52.3047 98.7125 53.127C98.4431 53.9493 98.2596 54.6986 98.3325 55.3762C98.5823 57.6995 100.668 59.3908 102.975 59.1393C105.283 58.8877 106.963 56.7853 106.713 54.4622C106.64 53.7844 106.299 53.094 105.861 52.3489C105.423 51.6039 104.872 50.8259 104.331 50.1144C103.249 48.6914 102.2 47.5283 102.2 47.5283L101.662 46.9338ZM125.371 53.3304L124.611 53.5746C124.611 53.5746 123.124 54.0534 121.481 54.7412C120.659 55.0851 119.796 55.4815 119.046 55.9062C118.297 56.331 117.661 56.7576 117.261 57.3079C115.891 59.194 116.3 61.86 118.173 63.2396C120.047 64.6191 122.695 64.205 124.065 62.3187C124.465 61.7686 124.676 61.0267 124.851 60.179C125.026 59.3312 125.14 58.3832 125.216 57.4904C125.369 55.705 125.369 54.132 125.369 54.132L125.371 53.3304ZM124.169 54.9863C124.161 55.5115 124.167 56.1166 124.058 57.391C123.984 58.2549 123.873 59.1652 123.713 59.9407C123.553 60.7163 123.318 61.3625 123.126 61.6277C122.611 62.3364 121.857 62.7579 121.06 62.8633C121.301 62.7127 121.518 62.5149 121.695 62.2705C122.437 61.2498 122.442 57.3627 122.442 57.3627C122.442 57.3627 118.765 58.5463 118.024 59.5669C117.846 59.8117 117.724 60.0801 117.655 60.357C117.513 59.5599 117.683 58.7078 118.198 57.9984C118.391 57.7332 118.931 57.3146 119.616 56.9261C120.302 56.5374 121.131 56.1548 121.926 55.822C123.1 55.3308 123.675 55.1532 124.169 54.9863ZM101.883 48.9759C102.228 49.3699 102.637 49.8111 103.409 50.8262C103.932 51.5148 104.46 52.2636 104.861 52.9453C105.262 53.6269 105.521 54.2612 105.557 54.5878C105.65 55.4611 105.375 56.2846 104.857 56.9033C104.934 56.6287 104.961 56.3352 104.929 56.0341C104.794 54.777 102.197 51.9007 102.197 51.9007C102.197 51.9007 100.272 55.2699 100.407 56.5272C100.44 56.8281 100.529 57.1088 100.663 57.3604C100.025 56.8679 99.5808 56.1232 99.487 55.25C99.4518 54.9233 99.5694 54.2455 99.8159 53.4933C100.062 52.7412 100.421 51.8975 100.786 51.1121C101.323 49.9546 101.629 49.4355 101.883 48.9759ZM110.983 59.3643C108.36 58.6569 105.761 59.8011 104.663 61.9819C103.15 62.1307 101.743 62.4731 100.645 63.1196C99.4603 63.817 98.5757 64.8198 98.2429 66.0703C97.7463 67.9364 98.5758 69.8924 100.151 71.5112C101.725 73.1299 104.073 74.4738 106.845 75.2216C109.617 75.9695 112.306 75.9853 114.465 75.3731C116.624 74.7609 118.305 73.4806 118.801 71.6169C119.137 70.3549 118.863 69.0287 118.172 67.8179C117.53 66.6937 116.463 65.6794 115.201 64.7849C115.309 62.3513 113.59 60.068 110.983 59.3643ZM110.682 60.4944C112.91 61.0956 114.291 63.0524 114.073 64.9703L114.032 65.326L114.329 65.5249C115.61 66.3821 116.587 67.3897 117.164 68.4001C117.741 69.4105 117.922 70.4001 117.679 71.3144C117.439 72.2173 116.796 72.9803 115.828 73.5489C116.169 73.148 116.417 72.6928 116.551 72.1882C116.958 70.6611 115.694 67.7628 112.458 65.9148C112.494 65.8226 112.525 65.7278 112.551 65.6303C112.962 64.0836 111.97 62.4718 110.334 62.0305C108.699 61.5892 107.039 62.4855 106.627 64.0322C106.602 64.1255 106.583 64.2189 106.568 64.3123C102.831 64.2715 100.311 66.177 99.9065 67.6976C99.7737 68.1966 99.7618 68.7097 99.8566 69.2232C99.3036 68.248 99.1268 67.27 99.3653 66.3737C99.606 65.4692 100.244 64.7113 101.231 64.13C102.219 63.5486 103.547 63.1666 105.06 63.0595L105.414 63.0341L105.554 62.7027C106.31 60.9072 108.442 59.8903 110.682 60.4944Z" fill="#F99035"/>
</svg>
